HIERARCHY
ROOT Hips
{
	OFFSET 0.00 0.00 0.00
	CHANNELS 6 Xposition Yposition Zposition Xrotation Yrotation Zrotation
	JOINT Spine
	{
		OFFSET 0.00000 4.88528 0.00000
		CHANNELS 3 Xrotation Yrotation Zrotation
		JOINT Head
		{
			OFFSET 0.00000 16.49416 0.00000
			CHANNELS 3 Xrotation Yrotation Zrotation
			End Site
			{
				OFFSET 0.00000 4.52755 0.00000
			}
		}
		JOINT LeftShoulder
		{
			OFFSET 0.00000 10.66345 0.00000
			CHANNELS 3 Xrotation Yrotation Zrotation
			JOINT LeftArm
			{
				OFFSET 7.53191 0.00000 0.00000
				CHANNELS 3 Xrotation Yrotation Zrotation
				JOINT LeftForeArm
				{
					OFFSET 10.22920 0.00000 0.00000
					CHANNELS 3 Yrotation Zrotation Xrotation
					JOINT LeftHand
					{
						OFFSET 8.67349 0.00000 0.00000
						CHANNELS 3 Xrotation Yrotation Zrotation
						JOINT LeftHandThumb1
						{
							OFFSET 0.00000 0.00000 0.00000
							CHANNELS 3 Xrotation Zrotation Yrotation
							End Site
							{
								OFFSET 0.00000 0.00000 3.93700
							}
						}
						End Site
						{
							OFFSET 3.93700 0.00000 0.00000
						}
					}
				}
			}
		}
		JOINT RightShoulder
		{
			OFFSET 0.00000 10.66345 0.00000
			CHANNELS 3 Xrotation Yrotation Zrotation
			JOINT RightArm
			{
				OFFSET -7.53191 0.00000 0.00000
				CHANNELS 3 Xrotation Yrotation Zrotation
				JOINT RightForeArm
				{
					OFFSET -10.22920 0.00000 0.00000
					CHANNELS 3 Yrotation Zrotation Xrotation
					JOINT RightHand
					{
						OFFSET -8.67349 0.00000 0.00000
						CHANNELS 3 Xrotation Yrotation Zrotation
						JOINT RightHandThumb1
						{
							OFFSET 0.00000 0.00000 0.00000
							CHANNELS 3 Xrotation Zrotation Yrotation
							End Site
							{
								OFFSET 0.00000 0.00000 3.93700
							}
						}
						End Site
						{
							OFFSET -3.93700 0.00000 0.00000
						}
					}
				}
			}
		}
	}
	JOINT LeftUpLeg
	{
		OFFSET 2.67219 0.00000 0.00000
		CHANNELS 3 Xrotation Yrotation Zrotation
		JOINT LeftLeg
		{
			OFFSET 0.00000 -16.26339 0.00000
			CHANNELS 3 Xrotation Yrotation Zrotation
			JOINT LeftFoot
			{
				OFFSET 0.00000 -14.32816 0.00000
				CHANNELS 3 Xrotation Yrotation Zrotation
				JOINT LeftToeBase
				{
					OFFSET 0.00000 -1.30219 4.85985
					CHANNELS 3 Xrotation Yrotation Zrotation
					End Site
					{
						OFFSET 0.00000 0.00000 2.95275
					}
				}
			}
		}
	}
	JOINT RightUpLeg
	{
		OFFSET -2.67219 0.00000 0.00000
		CHANNELS 3 Xrotation Yrotation Zrotation
		JOINT RightLeg
		{
			OFFSET 0.00000 -16.26339 0.00000
			CHANNELS 3 Xrotation Yrotation Zrotation
			JOINT RightFoot
			{
				OFFSET 0.00000 -14.32816 0.00000
				CHANNELS 3 Xrotation Yrotation Zrotation
				JOINT RightToeBase
				{
					OFFSET 0.00000 -1.30219 4.85985
					CHANNELS 3 Xrotation Yrotation Zrotation
					End Site
					{
						OFFSET 0.00000 0.00000 2.95275
					}
				}
			}
		}
	}
}
MOTION
Frames: 11
Frame Time: 0.008333
 3.7734 32.7326 -2.6087 10.5451 1.6542 -1.0552 -14.8871 -7.1951 -2.2029 13.5855 -5.4948 1.0062 27.8249 32.0214 21.5392 -73.0174 -1.9180 -26.6755 3.8004 0.0000 8.2588 0.1111 -2.3650 2.6905 33.1476 -0.0000 26.2537 -8.0739 -3.9353 -31.4383 -21.8366 -3.1928 38.7496 0.1126 -0.0000 8.4082 -0.1512 1.5324 5.6373 32.8623 0.0000 -24.3270 -4.2476 -5.7227 1.2218 -2.7029 0.0000 -0.0000 -3.5137 13.6848 -11.6240 -2.0149 -0.0000 0.0000 -3.2024 -0.5557 2.7878 -4.3817 0.0000 0.0000 -5.4992 -12.0948 3.7466 3.4246 0.0000 -0.0000
 3.7753 32.7335 -2.6033 10.5589 1.6446 -1.0571 -14.9206 -7.1639 -2.2117 13.6237 -5.5091 1.0174 27.8189 32.0154 21.5500 -73.0083 -1.9209 -26.6966 3.8009 0.0000 8.2497 0.1081 -2.3296 2.6565 33.1476 -0.0000 26.2537 -8.0915 -3.9304 -31.4347 -21.8148 -3.2010 38.7624 0.1128 -0.0000 8.3546 -0.1515 1.5480 5.5901 32.8623 0.0000 -24.3270 -4.2434 -5.7284 1.2210 -2.7215 -0.0000 -0.0000 -3.5070 13.7106 -11.6102 -1.9816 0.0000 0.0000 -3.2284 -0.6032 2.7892 -4.3331 0.0000 0.0000 -5.5242 -12.0462 3.7448 3.4277 0.0000 0.0000
 3.7764 32.7335 -2.5964 10.5672 1.6536 -1.0628 -14.9537 -7.1549 -2.2251 13.6690 -5.5033 1.0388 27.8363 32.0216 21.5661 -73.0988 -1.8220 -26.7262 3.7212 0.0000 8.3673 0.1027 -2.2332 2.6343 33.1476 -0.0000 26.2537 -8.0766 -3.9409 -31.4339 -21.8118 -3.1985 38.7869 0.1150 -0.0000 8.3160 -0.1501 1.5543 5.5168 32.8623 0.0000 -24.3270 -4.2390 -5.7166 1.2211 -2.7261 -0.0000 -0.0000 -3.5017 13.6923 -11.6038 -1.9621 0.0000 -0.0000 -3.2215 -0.6154 2.7914 -4.3391 -0.0000 0.0000 -5.5165 -12.0297 3.7395 3.4050 0.0000 0.0000
 3.7767 32.7341 -2.5913 10.5851 1.6495 -1.0748 -14.9930 -7.1346 -2.2301 13.7141 -5.5096 1.0640 27.8035 32.0013 21.6078 -73.0403 -1.8162 -26.7447 3.7315 0.0000 8.3176 0.1001 -2.1960 2.6100 33.1476 -0.0000 26.2537 -8.0825 -3.9382 -31.4299 -21.8001 -3.2032 38.8014 0.1234 -0.0000 8.2993 -0.1441 1.4787 5.5651 32.8623 0.0000 -24.3270 -4.2390 -5.7091 1.2329 -2.7389 0.0000 0.0000 -3.5075 13.6924 -11.5814 -1.9713 -0.0000 0.0000 -3.2064 -0.5407 2.7972 -4.3963 0.0000 0.0000 -5.4739 -12.0912 3.7748 3.3990 -0.0000 0.0000
 3.7777 32.7346 -2.5863 10.5937 1.6407 -1.0825 -15.0200 -7.1169 -2.2382 13.7460 -5.5159 1.0918 27.7989 31.9943 21.6193 -72.9921 -1.8272 -26.7504 3.7327 0.0000 8.2815 0.0976 -2.1800 2.5632 33.1476 -0.0000 26.2537 -8.0862 -3.9357 -31.4176 -21.8031 -3.2102 38.8133 0.1279 -0.0000 8.3038 -0.1543 1.5952 5.5250 32.8623 0.0000 -24.3270 -4.2287 -5.7099 1.2378 -2.7560 0.0000 -0.0000 -3.5026 13.7077 -11.5663 -2.0121 -0.0000 -0.0000 -3.2090 -0.5401 2.8062 -4.3873 -0.0000 -0.0000 -5.4842 -12.0905 3.7720 3.4140 0.0000 0.0000
 3.7797 32.7347 -2.5805 10.5926 1.6245 -1.0872 -15.0400 -7.1067 -2.2419 13.7825 -5.4976 1.1051 27.7818 31.9741 21.6302 -72.9098 -1.8348 -26.7357 3.7468 0.0000 8.2067 0.0983 -2.2984 2.4495 33.1476 -0.0000 26.2537 -8.0855 -3.9101 -31.3920 -21.7917 -3.2081 38.8003 0.1163 -0.0000 8.3679 -0.1525 1.6154 5.3944 32.8623 0.0000 -24.3270 -4.2064 -5.6980 1.2394 -2.7789 -0.0000 0.0000 -3.4931 13.7137 -11.5579 -1.9485 0.0000 -0.0000 -3.2098 -0.5495 2.8125 -4.3643 0.0000 0.0000 -5.4999 -12.0816 3.7469 3.4247 -0.0000 -0.0000
 3.7813 32.7340 -2.5750 10.5951 1.6177 -1.1013 -15.0557 -7.1007 -2.2366 13.7987 -5.5003 1.1152 27.7749 31.9627 21.6439 -72.8936 -1.8121 -26.7438 3.7663 0.0000 8.1918 0.1009 -2.3136 2.4978 33.1476 -0.0000 26.2537 -8.1039 -3.9027 -31.4001 -21.7691 -3.1878 38.8367 0.1158 -0.0000 8.3283 -0.1599 1.6876 5.4127 32.8623 0.0000 -24.3270 -4.1868 -5.7044 1.2499 -2.7985 -0.0000 -0.0000 -3.5018 13.7329 -11.5239 -2.0036 -0.0000 -0.0000 -3.2000 -0.5367 2.8216 -4.3693 -0.0000 0.0000 -5.4955 -12.0804 3.7911 3.3829 -0.0000 0.0000
 3.7831 32.7335 -2.5695 10.5971 1.6128 -1.1107 -15.0744 -7.0822 -2.2346 13.8183 -5.5013 1.1288 27.7945 31.9689 21.6403 -72.9268 -1.7975 -26.7754 3.7659 0.0000 8.1938 0.0963 -2.2148 2.4909 33.1476 -0.0000 26.2537 -8.1017 -3.9040 -31.3930 -21.7714 -3.1992 38.8379 0.1117 -0.0000 8.3671 -0.1701 1.8072 5.3777 32.8623 0.0000 -24.3270 -4.1678 -5.7034 1.2572 -2.8182 -0.0000 -0.0000 -3.4925 13.7343 -11.5054 -2.0128 0.0000 -0.0000 -3.1855 -0.5136 2.8292 -4.3850 0.0000 0.0000 -5.4845 -12.0983 3.7832 3.3809 -0.0000 0.0000
 3.7851 32.7330 -2.5637 10.5943 1.6186 -1.1197 -15.0812 -7.0828 -2.2354 13.8239 -5.4984 1.1388 27.8348 31.9866 21.6168 -72.8898 -1.8621 -26.8002 3.8278 0.0000 8.0727 0.0937 -2.1715 2.4715 33.1476 -0.0000 26.2537 -8.1254 -3.8944 -31.3932 -21.7647 -3.2023 38.8570 0.1058 -0.0000 8.3759 -0.1638 1.7730 5.2800 32.8623 0.0000 -24.3270 -4.1493 -5.6841 1.2610 -2.8321 0.0000 0.0000 -3.4997 13.7237 -11.5160 -2.0082 -0.0000 0.0000 -3.1694 -0.4818 2.8327 -4.3936 -0.0000 0.0000 -5.4920 -12.1262 3.7549 3.4046 -0.0000 0.0000
 3.7869 32.7329 -2.5590 10.5979 1.6155 -1.1311 -15.0942 -7.0830 -2.2335 13.8174 -5.4760 1.1529 27.8128 31.9694 21.6410 -72.8894 -1.7875 -26.8059 3.7924 0.0000 8.1147 0.0944 -2.1697 2.4923 33.1476 -0.0000 26.2537 -8.1351 -3.8844 -31.4030 -21.7728 -3.2164 38.8931 0.1090 -0.0000 8.3779 -0.1735 1.8940 5.2338 32.8623 0.0000 -24.3270 -4.1363 -5.6898 1.2696 -2.8453 -0.0000 0.0000 -3.5047 13.7373 -11.4981 -1.9916 -0.0000 0.0000 -3.1645 -0.4552 2.8423 -4.3968 0.0000 0.0000 -5.4963 -12.1552 3.7561 3.4220 -0.0000 -0.0000
 3.7881 32.7330 -2.5545 10.5960 1.6125 -1.1446 -15.1008 -7.0795 -2.2283 13.8134 -5.4712 1.1662 27.7924 31.9437 21.6498 -72.8554 -1.7686 -26.7975 3.7987 0.0000 8.1081 0.0963 -2.2171 2.4870 33.1476 -0.0000 26.2537 -8.1352 -3.8721 -31.3882 -21.7860 -3.2312 38.8843 0.1028 -0.0000 8.4298 -0.1723 1.9507 5.0495 32.8623 0.0000 -24.3270 -4.1123 -5.7045 1.2821 -2.8716 0.0000 -0.0000 -3.5019 13.7508 -11.4997 -1.9680 0.0000 -0.0000 -3.1567 -0.4701 2.8555 -4.3886 -0.0000 -0.0000 -5.4999 -12.1437 3.7730 3.4064 0.0000 -0.0000
